<svg width="20" height="16" viewBox="0 0 20 16" fill="none" xmlns="http://www.w3.org/2000/svg">
<g clip-path="url(#clip0_4701_205353)">
<path d="M0 2.49785V4.92308H3.12667L0 2.49785ZM2.59111 16H7.22222V12.408L2.59111 16ZM12.7778 12.4086V16H17.4083L12.7778 12.4086ZM0 11.0769V13.5022L3.12778 11.0769H0ZM17.4094 0H12.7778V3.592L17.4094 0ZM20 13.5028V11.0769H16.8717L20 13.5028ZM20 4.92308V2.49785L16.8728 4.92308H20ZM7.22222 0H2.59111L7.22222 3.592V0Z" fill="#00247D"/>
<path d="M13.9664 11.0745L19.3619 15.2597C19.6236 14.965 19.8108 14.5939 19.9119 14.1834L15.9036 11.0745H13.9664ZM7.22192 11.0745H6.03247L0.63747 15.2591C0.926914 15.5853 1.29803 15.8185 1.71414 15.9268L7.22192 11.6548V11.0745ZM12.7775 4.92067H13.9669L19.3619 0.736052C19.0725 0.409898 18.7019 0.176667 18.2858 0.0683594L12.7775 4.34036V4.92067ZM6.03247 4.92067L0.63747 0.736052C0.375803 1.03144 0.188581 1.4019 0.0869141 1.81236L4.09525 4.92067H6.03247Z" fill="#CF1B2B"/>
<path d="M20 9.84615H11.6667V16H12.7778V12.4086L17.4083 16H17.7778C18.3983 16 18.9589 15.7163 19.3622 15.2622L13.9667 11.0769H15.9039L19.9122 14.1858C19.9639 13.9785 20 13.7637 20 13.5385V13.5028L16.8717 11.0769H20V9.84615ZM0 9.84615V11.0769H3.12778L0 13.5022V13.5385C0 14.2098 0.243889 14.8172 0.637778 15.2615L6.03278 11.0769H7.22222V11.6572L1.71444 15.9286C1.87778 15.9717 2.04667 16 2.22222 16H2.59111L7.22222 12.408V16H8.33333V9.84615H0ZM20 2.46154C20 1.79015 19.7561 1.18277 19.3622 0.738461L13.9672 4.92308H12.7778V4.34277L18.2861 0.0707691C18.1222 0.0283076 17.9533 0 17.7778 0H17.4094L12.7778 3.592V0H11.6667V6.15385H20V4.92308H16.8728L20 2.49785V2.46154ZM7.22222 0V3.592L2.59111 0H2.22222C1.60111 0 1.04111 0.283692 0.637778 0.738461L6.03278 4.92308H4.09556L0.0872222 1.81477C0.0361111 2.02215 0 2.23631 0 2.46154V2.49785L3.12667 4.92308H0V6.15385H8.33333V0H7.22222Z" fill="#EEEEEE"/>
<path d="M11.6667 6.15385V0H8.33333V6.15385H0V9.84615H8.33333V16H11.6667V9.84615H20V6.15385H11.6667Z" fill="#CF1B2B"/>
</g>
<defs>
<clipPath id="clip0_4701_205353">
<rect width="20" height="16" fill="white"/>
</clipPath>
</defs>
</svg>
