<svg width="17" height="16" viewBox="0 0 17 16" fill="none" xmlns="http://www.w3.org/2000/svg">
<path d="M6.13086 14.75V9.2C6.13086 8.77996 6.13086 8.56994 6.21261 8.40951C6.28451 8.26839 6.39925 8.15365 6.54037 8.08175C6.7008 8 6.91082 8 7.33086 8H9.43086C9.8509 8 10.0609 8 10.2214 8.08175C10.3625 8.15365 10.4772 8.26839 10.5491 8.40951C10.6309 8.56994 10.6309 8.77996 10.6309 9.2V14.75M0.880859 6.125L7.66086 1.04C7.91906 0.846354 8.04815 0.749532 8.18994 0.712209C8.31509 0.679264 8.44664 0.679264 8.57179 0.712209C8.71357 0.749532 8.84267 0.846355 9.10086 1.04L15.8809 6.125M2.38086 5V12.35C2.38086 13.1901 2.38086 13.6101 2.54435 13.931C2.68816 14.2132 2.91763 14.4427 3.19988 14.5865C3.52074 14.75 3.94078 14.75 4.78086 14.75H11.9809C12.8209 14.75 13.241 14.75 13.5618 14.5865C13.8441 14.4427 14.0736 14.2132 14.2174 13.931C14.3809 13.6101 14.3809 13.1901 14.3809 12.35V5L9.82086 1.58C9.30447 1.19271 9.04628 0.999064 8.76271 0.924418C8.51241 0.858528 8.24932 0.858528 7.99901 0.924418C7.71544 0.999064 7.45725 1.19271 6.94086 1.58L2.38086 5Z" stroke="#9395B8" stroke-width="1.35" stroke-linecap="round" stroke-linejoin="round"/>
</svg>
