<svg width="18" height="20" viewBox="0 0 18 20" fill="none" xmlns="http://www.w3.org/2000/svg">
<path d="M6.79545 17.5001C7.38306 18.0187 8.15493 18.3334 9.0003 18.3334C9.84567 18.3334 10.6175 18.0187 11.2052 17.5001M14.0003 6.66675C14.0003 5.34067 13.4735 4.0689 12.5358 3.13121C11.5982 2.19353 10.3264 1.66675 9.0003 1.66675C7.67422 1.66675 6.40245 2.19353 5.46477 3.13121C4.52708 4.0689 4.0003 5.34067 4.0003 6.66675C4.0003 9.2419 3.35069 11.005 2.62502 12.1713C2.01291 13.155 1.70685 13.6468 1.71807 13.784C1.7305 13.936 1.76268 13.9939 1.88511 14.0847C1.99568 14.1667 2.49413 14.1667 3.49101 14.1667H14.5096C15.5065 14.1667 16.0049 14.1667 16.1155 14.0847C16.2379 13.9939 16.2701 13.936 16.2825 13.784C16.2938 13.6468 15.9877 13.155 15.3756 12.1713C14.6499 11.005 14.0003 9.2419 14.0003 6.66675Z" stroke="#9395B8" stroke-width="1.5" stroke-linecap="round" stroke-linejoin="round"/>
</svg>
