<svg width="959" height="142" viewBox="0 0 959 142" fill="none" xmlns="http://www.w3.org/2000/svg">
<g opacity="0.1">
<path d="M308.116 0C278.424 0 251.962 24.5287 248.087 55.5086L244.214 86.1673C240.342 117.15 260.995 142 290.687 142C320.379 142 346.841 117.15 350.716 86.1673L354.589 55.5086C358.461 24.5258 337.808 0 308.116 0ZM327.478 55.5086L323.606 86.4914C321.67 101.336 308.761 113.602 294.238 113.602C279.715 113.602 269.388 101.339 271.324 86.4914L275.197 55.5086C277.133 40.3399 290.041 28.3983 304.565 28.3983C319.088 28.3983 329.415 40.3399 327.478 55.5086Z" fill="white"/>
<path d="M208.391 1.29243H159.982C145.138 1.29243 132.872 12.2645 130.936 27.1119L117.058 140.714H145.459L150.622 99.08H179.669C186.768 99.08 193.868 95.853 198.71 89.7201L229.047 52.9285C250.025 27.4332 237.438 1.29243 208.391 1.29243ZM204.84 41.3111L183.538 67.7759C182.248 69.3909 179.987 70.3576 178.051 70.3576H154.168L159.01 29.6936H200.319C206.452 29.6936 209.034 35.8265 204.837 41.3111H204.84Z" fill="white"/>
<path d="M12.2051 43.2446C9.29931 67.4491 24.7921 85.1995 48.9967 85.1995H64.4866C72.2316 85.1995 77.3949 91.0082 76.4282 98.7532C75.4587 106.498 69.0045 112.307 61.2596 112.307H3.81471L0.263489 140.708H58.3566C82.2399 140.708 101.926 122.958 104.829 99.0745C107.735 74.87 92.2424 56.7955 68.0378 56.7955H52.5479C44.8029 56.7955 39.6396 50.9867 40.6062 43.2417C41.5758 35.4968 48.03 29.688 55.775 29.688H113.22L116.771 1.28688H59.3233C35.1188 1.28688 15.108 19.0372 12.2051 43.2417V43.2446Z" fill="white"/>
<path d="M884.838 56.7983C886.774 41.6296 899.682 29.688 914.206 29.688H955.243L958.794 1.28688H917.757C888.065 1.28688 861.603 25.8155 857.727 56.7955L854.176 84.8725C850.304 115.855 870.636 140.381 900.328 140.705H941.58L945.131 112.304H903.879C889.356 111.983 879.35 100.041 881.287 85.1938L884.838 56.7926V56.7983Z" fill="#C2C7EF"/>
<path d="M701.348 1.29243H652.938C638.094 1.29243 625.828 12.2645 623.892 27.1119L610.014 140.714H638.415L643.579 99.08H663.647L685.533 140.714H718.452L691.569 89.8406C691.6 89.8004 691.632 89.7631 691.663 89.723L722.001 52.9314C741.687 29.0482 730.391 1.29529 701.345 1.29529L701.348 1.29243ZM697.01 41.3111L675.709 67.7759C674.418 69.3909 672.158 70.3576 670.221 70.3576H646.338L651.18 29.6936H692.49C698.622 29.6936 701.204 35.8265 697.007 41.3111H697.01Z" fill="#C2C7EF"/>
<path d="M452.7 1.29243H404.291C389.446 1.29243 377.181 12.2645 375.244 27.1119L361.366 140.714H389.768L394.931 99.08H414.761L436.886 140.714H469.805L442.795 89.5996L473.032 52.9314C492.719 29.0482 481.746 1.29529 452.7 1.29529V1.29243ZM449.149 41.3111L427.847 67.7759C426.556 69.3909 424.296 70.3576 422.36 70.3576H398.476L403.318 29.6936H444.628C450.761 29.6936 453.342 35.8265 449.146 41.3111H449.149Z" fill="white"/>
<path d="M748.968 27.1092L738.317 114.891C736.381 129.736 746.062 140.711 760.91 140.711H829.651L833.202 112.31H767.364L770.591 85.1995H825.778L829.329 56.7983H774.142L777.369 29.688H843.207L846.759 1.28688H778.018C763.173 1.28688 750.907 12.2589 748.971 27.1064L748.968 27.1092Z" fill="#C2C7EF"/>
<path d="M499.173 29.6936H538.547L524.993 140.714H553.394L566.948 29.6936H606.321L609.869 1.29243H502.725L499.173 29.6936Z" fill="white"/>
</g>
</svg>
