<svg width="14" height="16" viewBox="0 0 14 16" fill="none" xmlns="http://www.w3.org/2000/svg">
<path d="M1.61583 4.8187C1.28253 7.59503 3.0596 9.63105 5.83593 9.63105H7.61268C8.50105 9.63105 9.0933 10.2973 8.98242 11.1857C8.87121 12.0741 8.1309 12.7404 7.24253 12.7404H0.653429L0.246094 15.9984H6.90955C9.64903 15.9984 11.9071 13.9624 12.2401 11.2229C12.5734 8.44655 10.7963 6.37335 8.02002 6.37335H6.24327C5.3549 6.37335 4.76265 5.70707 4.87353 4.8187C4.98474 3.93032 5.72505 3.26405 6.61343 3.26405H13.2025L13.6099 0.00634766H7.02043C4.2441 0.00634766 1.94881 2.04237 1.61583 4.8187Z" fill="black"/>
</svg>
